<svg width="1550" height="790" viewBox="412 125 1550 790" fill="none" xmlns="http://www.w3.org/2000/svg">
<path d="M1959.81 394.594H1956.07V292.24C1956.07 276.529 1949.83 261.461 1938.72 250.351C1927.61 239.241 1912.54 233 1896.83 233H1679.98C1664.27 233 1649.2 239.241 1638.09 250.351C1626.98 261.461 1620.74 276.529 1620.74 292.24V853.761C1620.74 869.472 1626.98 884.54 1638.09 895.65C1649.2 906.76 1664.27 913.001 1679.98 913.001H1896.83C1912.54 913.001 1927.61 906.76 1938.72 895.65C1949.83 884.54 1956.07 869.472 1956.07 853.761V467.451H1959.81V394.594Z" fill="#3f3d56"/>
<path d="M1943.99 288.276V857.728C1943.99 869.64 1939.26 881.064 1930.84 889.488C1922.42 897.912 1910.99 902.646 1899.08 902.651H1677.78C1665.86 902.652 1654.43 897.919 1646 889.494C1637.57 881.068 1632.84 869.64 1632.83 857.723V288.276C1632.84 276.36 1637.58 264.933 1646 256.509C1654.43 248.084 1665.86 243.353 1677.78 243.354H1704.62C1703.3 246.596 1702.8 250.111 1703.16 253.592C1703.52 257.073 1704.73 260.412 1706.68 263.317C1708.63 266.221 1711.27 268.602 1714.35 270.249C1717.44 271.897 1720.89 272.761 1724.38 272.765H1850.55C1854.05 272.76 1857.5 271.896 1860.58 270.248C1863.67 268.6 1866.31 266.219 1868.26 263.314C1870.21 260.409 1871.42 257.069 1871.78 253.588C1872.13 250.107 1871.63 246.591 1870.31 243.35H1899.07C1910.98 243.352 1922.4 248.084 1930.83 256.506C1939.25 264.929 1943.99 276.351 1943.99 288.263L1943.99 288.276Z" fill="#E6E6E6"/>
<path d="M1920.42 872.926H1656.42C1654.16 872.923 1652 872.027 1650.41 870.433C1648.81 868.84 1647.92 866.679 1647.92 864.426V309.426C1647.92 307.172 1648.81 305.012 1650.41 303.418C1652 301.825 1654.16 300.928 1656.42 300.926H1920.42C1922.67 300.928 1924.83 301.825 1926.42 303.418C1928.02 305.012 1928.91 307.172 1928.92 309.426V864.426C1928.91 866.679 1928.02 868.84 1926.42 870.433C1924.83 872.027 1922.67 872.923 1920.42 872.926V872.926Z" fill="white"/>
<path d="M1899.96 607.923H1676.87V831.017H1899.96V607.923Z" fill="#E6E6E6"/>
<path d="M1894.07 612.643H1680.42V826.298H1894.07V612.643Z" fill="white"/>
<path d="M1807.58 633.267H1724.42V639.518H1807.58V633.267Z" fill="#E6E6E6"/>
<path d="M1852.84 651.619H1724.42V657.87H1852.84V651.619Z" fill="#70CBF2"/>
<path d="M1830.42 669.096H1725.75V675.347H1830.42V669.096Z" fill="#E6E6E6"/>
<path d="M1785.52 688.272H1724.42V694.523H1785.52V688.272Z" fill="#E6E6E6"/>
<path d="M1816.64 707.003H1724.42V713.254H1816.64V707.003Z" fill="#70CBF2"/>
<path d="M1807.58 725.851H1724.42V732.102H1807.58V725.851Z" fill="#E6E6E6"/>
<path d="M1852.84 744.202H1724.42V750.453H1852.84V744.202Z" fill="#70CBF2"/>
<path d="M1830.42 761.679H1725.75V767.93H1830.42V761.679Z" fill="#E6E6E6"/>
<path d="M1785.52 780.856H1724.42V787.107H1785.52V780.856Z" fill="#E6E6E6"/>
<path d="M1816.64 799.587H1724.42V805.838H1816.64V799.587Z" fill="#E6E6E6"/>
<mask id="mask0_1705_1618" style="mask-type:alpha" maskUnits="userSpaceOnUse" x="1706" y="368" width="168" height="178">
<path fill-rule="evenodd" clip-rule="evenodd" d="M1706 389.249C1706 377.514 1715.64 368 1727.54 368H1852.39C1864.29 368 1873.93 377.514 1873.93 389.249V463.159C1873.93 508.911 1836.34 546 1789.96 546C1743.59 546 1706 508.911 1706 463.159V389.249ZM1727.54 380.934C1722.88 380.934 1719.11 384.657 1719.11 389.249V463.159C1719.11 501.768 1750.83 533.066 1789.96 533.066C1829.1 533.066 1860.82 501.768 1860.82 463.159V389.249C1860.82 384.657 1857.05 380.934 1852.39 380.934H1727.54Z" fill="#3f3d56"/>
</mask>
<g mask="url(#mask0_1705_1618)">
<path d="M1728.4 546C1716.03 546 1706 535.975 1706 523.609L1706 462.594L1789.46 462.594L1789.46 546L1728.4 546Z" fill="#F6C28B"/>
<path d="M1873.93 450.389H1789.46V546H1801.36C1841.44 546 1873.93 514.144 1873.93 474.847V450.389Z" fill="#57C0B3"/>
<path d="M1706 368H1789.46V392.199C1789.46 431.077 1757.14 462.594 1717.28 462.594H1706V368Z" fill="#70CBF2"/>
<path d="M1789.46 368H1851.1C1863.71 368 1873.93 377.902 1873.93 390.118V450.389H1789.46V368Z" fill="#F27A86"/>
</g>
<path fill-rule="evenodd" clip-rule="evenodd" d="M1790.84 416.439H1769.41C1761.86 416.439 1756.36 422.864 1756.36 430.409V473.252C1756.36 480.724 1761.93 486.292 1769.41 486.292H1813.21C1820.76 486.292 1826.25 480.798 1826.25 473.252V450.899H1790.84V416.439Z" fill="#3f3d56"/>
<g clip-path="url(#clip0_1705_1618)">
<path d="M748.986 504.288C748.986 546.307 734.295 582.181 706.339 608.878C686.5 627.832 655.943 654.398 655.943 682.486V705.724H562.9V682.486C562.9 654.104 532.223 627.484 512.505 608.878C485.18 583.116 469.857 544.806 469.857 504.288V503.429C469.977 466.445 484.793 431.023 511.047 404.954C537.3 378.885 572.841 364.304 609.851 364.418C646.862 364.532 682.312 379.331 708.404 405.562C734.496 431.792 749.094 467.304 748.986 504.288Z" fill="#F6C28B"/>
<path d="M655.942 708.987C655.076 708.987 654.246 708.644 653.634 708.032C653.021 707.42 652.677 706.59 652.677 705.725V682.482C652.677 655.16 679.642 629.655 699.333 611.031C700.965 609.485 702.555 607.986 704.081 606.524C731.318 580.504 745.715 545.152 745.715 504.29C745.715 427.92 685.848 368.096 609.424 368.096H609.039C573.072 368.137 538.585 382.406 513.117 407.783C487.65 433.161 473.273 467.583 473.132 503.523V504.284C473.132 544.302 488.301 581.561 514.751 606.511C516.09 607.775 517.482 609.077 518.911 610.414C538.855 629.073 566.169 654.626 566.169 682.483V705.725C566.169 706.59 565.825 707.42 565.213 708.032C564.601 708.644 563.77 708.987 562.905 708.987C562.039 708.987 561.208 708.644 560.596 708.032C559.984 707.42 559.64 706.59 559.64 705.725V682.482C559.64 657.455 533.523 633.019 514.448 615.17C513.013 613.828 511.62 612.521 510.268 611.25C482.519 585.073 466.603 546.086 466.603 504.285V503.503C466.82 425.158 530.682 361.567 609.029 361.567H609.433C647.113 361.372 683.327 376.141 710.11 402.627C736.892 429.114 752.048 465.147 752.244 502.799C752.247 503.296 752.247 503.793 752.244 504.29C752.244 546.977 737.149 583.96 708.593 611.24C707.06 612.705 705.464 614.215 703.82 615.769C684.994 633.578 659.203 657.968 659.203 682.482V705.725C659.203 706.59 658.859 707.42 658.247 708.032C657.635 708.644 656.805 708.987 655.939 708.987H655.942Z" fill="#3f3d56"/>
<path d="M640.436 750.848H578.408C576.965 750.848 575.581 750.275 574.56 749.256C573.54 748.236 572.967 746.853 572.967 745.411C572.967 743.969 573.54 742.586 574.56 741.566C575.581 740.547 576.965 739.974 578.408 739.974H640.436C641.88 739.974 643.264 740.547 644.284 741.566C645.304 742.586 645.878 743.969 645.878 745.411C645.878 746.853 645.304 748.236 644.284 749.256C643.264 750.275 641.88 750.848 640.436 750.848Z" fill="#F6C28B"/>
<path d="M616.093 787.277H602.743C598.106 787.28 593.556 786.02 589.582 783.633C588.993 783.29 588.537 782.759 588.286 782.125C588.036 781.491 588.006 780.791 588.202 780.138C588.381 779.468 588.777 778.875 589.329 778.454C589.881 778.033 590.556 777.806 591.251 777.809H627.585C628.28 777.806 628.956 778.033 629.507 778.454C630.059 778.875 630.455 779.468 630.634 780.138C630.83 780.791 630.8 781.491 630.55 782.125C630.299 782.759 629.843 783.29 629.254 783.633C625.28 786.021 620.73 787.28 616.093 787.277Z" fill="#3f3d56"/>
<path d="M640.448 768.023L578.051 768.016L577.858 767.602C577.674 766.84 577.666 766.047 577.836 765.282C578.006 764.517 578.348 763.801 578.837 763.189C579.333 762.561 579.965 762.053 580.685 761.705C581.406 761.357 582.197 761.177 582.997 761.179H635.839C636.639 761.177 637.43 761.357 638.151 761.705C638.871 762.054 639.503 762.561 639.999 763.189C640.484 763.793 640.825 764.499 640.997 765.254C641.169 766.009 641.166 766.793 640.99 767.547L640.892 767.967L640.448 768.023Z" fill="#3f3d56"/>
<path d="M465.125 376.125C463.809 376.126 462.539 375.65 461.549 374.784L414.822 334.026C413.751 333.073 413.101 331.736 413.011 330.307C412.921 328.877 413.399 327.47 414.342 326.39C415.285 325.311 416.616 324.647 418.046 324.543C419.475 324.439 420.889 324.903 421.978 325.834L468.705 366.592C469.54 367.32 470.132 368.285 470.403 369.359C470.674 370.432 470.611 371.563 470.221 372.599C469.832 373.636 469.136 374.529 468.225 375.159C467.314 375.789 466.233 376.126 465.125 376.126V376.125Z" fill="#EF902C"/>
<path d="M745.971 376.125C744.863 376.125 743.781 375.788 742.871 375.158C741.96 374.527 741.263 373.634 740.874 372.598C740.485 371.562 740.422 370.431 740.693 369.358C740.964 368.284 741.556 367.319 742.391 366.591L789.117 325.83C790.206 324.899 791.619 324.435 793.049 324.539C794.479 324.643 795.809 325.307 796.752 326.386C797.695 327.465 798.174 328.873 798.084 330.302C797.994 331.732 797.343 333.069 796.273 334.022L749.546 374.78C748.557 375.647 747.286 376.125 745.971 376.125Z" fill="#EF902C"/>
<path d="M655.942 731.552H562.899C561.456 731.552 560.072 730.979 559.052 729.959C558.031 728.939 557.458 727.556 557.458 726.114C557.458 724.672 558.031 723.289 559.052 722.27C560.072 721.25 561.456 720.677 562.899 720.677H655.942C657.385 720.677 658.769 721.25 659.789 722.27C660.81 723.289 661.383 724.672 661.383 726.114C661.383 727.556 660.81 728.939 659.789 729.959C658.769 730.979 657.385 731.552 655.942 731.552Z" fill="#F6C28B"/>
<path d="M607.136 589.511L587.788 705.725H576.742L596.395 587.727C596.632 586.304 597.425 585.033 598.599 584.194C599.774 583.354 601.234 583.016 602.658 583.252C604.082 583.489 605.354 584.281 606.194 585.455C607.034 586.628 607.373 588.087 607.136 589.511Z" fill="#A9B2C4"/>
<path d="M644.321 705.725H633.276L613.927 589.511C613.691 588.087 614.029 586.628 614.869 585.455C615.709 584.281 616.981 583.489 618.405 583.252C619.829 583.016 621.29 583.354 622.464 584.194C623.638 585.033 624.431 586.304 624.668 587.727L644.321 705.725Z" fill="#A9B2C4"/>
<path d="M574.06 585.628C574.06 584.186 574.633 582.803 575.653 581.784C576.674 580.764 578.058 580.191 579.501 580.191H639.345C640.788 580.191 642.172 580.764 643.193 581.784C644.213 582.803 644.786 584.186 644.786 585.628C644.786 587.07 644.213 588.453 643.193 589.473C642.172 590.493 640.788 591.066 639.345 591.066H579.501C578.058 591.066 576.674 590.493 575.653 589.473C574.633 588.453 574.06 587.07 574.06 585.628Z" fill="#A9B2C4"/>
<path d="M609.423 321.85C607.979 321.85 606.596 321.277 605.575 320.257C604.555 319.238 603.981 317.855 603.981 316.413V223.437C603.981 221.995 604.555 220.612 605.575 219.593C606.596 218.573 607.979 218 609.423 218C610.866 218 612.25 218.573 613.27 219.593C614.29 220.612 614.864 221.995 614.864 223.437V316.413C614.864 317.855 614.29 319.238 613.27 320.257C612.25 321.277 610.866 321.85 609.423 321.85Z" fill="#EF902C"/>
</g>
<path d="M1254.5 630.891L1254.69 638.889L1254.8 638.886L1254.91 638.881L1254.5 630.891ZM1520.56 630.891L1521.55 638.83L1520.56 630.891ZM1580.1 621.517L1493.89 588.333L1508.26 679.585L1580.1 621.517ZM767.701 673.266C801.222 699.091 849.317 694.91 897.051 677.624C945.289 660.156 995.869 628.392 1037.03 594.62C1057.64 577.706 1076.03 560.178 1090.67 543.524C1105.23 526.968 1116.44 510.884 1122.26 496.849C1127.88 483.315 1129.66 468.457 1119.37 458.337C1114.51 453.555 1107.78 450.823 1099.94 449.594C1092.09 448.362 1082.58 448.545 1071.41 450.074L1073.59 465.926C1083.84 464.521 1091.68 464.493 1097.46 465.4C1103.26 466.309 1106.44 468.065 1108.15 469.746C1111.01 472.552 1112.55 478.518 1107.49 490.716C1102.63 502.412 1092.72 516.965 1078.66 532.958C1064.68 548.852 1046.95 565.786 1026.88 582.251C986.679 615.236 937.665 645.9 891.603 662.58C845.036 679.443 804.126 681.13 777.466 660.591L767.701 673.266ZM1071.41 450.074C1027.88 456.035 999.644 470.666 988.327 491.947C976.582 514.035 984.958 539.108 1004.68 560.736C1044.18 604.04 1135.17 641.717 1254.69 638.889L1254.31 622.893C1137.49 625.658 1051.78 588.627 1016.51 549.954C998.848 530.594 995.326 512.864 1002.45 499.459C1010.01 485.25 1031.41 471.701 1073.59 465.926L1071.41 450.074ZM1254.91 638.881C1270.2 638.099 1323.7 639.635 1380.47 640.618C1436.57 641.588 1495.96 642.021 1521.55 638.83L1519.57 622.953C1495.4 625.968 1437.42 625.601 1380.75 624.62C1324.75 623.651 1270.11 622.083 1254.09 622.902L1254.91 638.881Z" fill="#A9B2C4"/>
<defs>
<clipPath id="clip0_1705_1618">
<rect width="715" height="844" fill="white" transform="translate(413 218)"/>
</clipPath>
<clipPath id="clip1_1705_1618">
<rect width="15.5429" height="16" fill="white" transform="translate(1124 732)"/>
</clipPath>
</defs>
</svg>
