<svg data-name="Layer 1" xmlns="http://www.w3.org/2000/svg" width="600" height="761.03649" viewBox="0 0 600 761.03649" xmlns:xlink="http://www.w3.org/1999/xlink"><rect y="758.44705" width="600" height="2" fill="#3f3d56"/><path d="M605.6087,275.68745h-3.99878V166.14212a63.40184,63.40184,0,0,0-63.40179-63.40192H306.1214a63.40185,63.40185,0,0,0-63.402,63.40172V767.11633a63.40186,63.40186,0,0,0,63.40179,63.40191H538.20782a63.40186,63.40186,0,0,0,63.402-63.40167V353.66369h3.99884Z" transform="translate(-130.9042 -69.48176)" fill="#3f3d56"/><path d="M588.11842,166.58437v600.09a47.35088,47.35088,0,0,1-47.35,47.35h-233.21a47.34234,47.34234,0,0,1-47.34-47.35v-600.09a47.34233,47.34233,0,0,1,47.34-47.35h28.3a22.48621,22.48621,0,0,0,20.83,30.99h132.96a22.48084,22.48084,0,0,0,20.82-30.99h30.3A47.35087,47.35087,0,0,1,588.11842,166.58437Z" transform="translate(-130.9042 -69.48176)" fill="#fff"/><circle cx="234.72423" cy="148.94264" r="62" fill="#ff6584"/><ellipse cx="481.52878" cy="511.47762" rx="83.93709" ry="41.13748" transform="translate(-205.63303 871.01427) rotate(-84.36901)" fill="#3f3d56"/><path d="M471.82832,648.57886c-6.69694-99.99244,19.199-196.41244,19.46125-197.37392l3.13615.85472c-.261.95682-26.013,96.871-19.35407,196.303Z" transform="translate(-130.9042 -69.48176)" fill="#57c0b3"/><rect x="479.38571" y="505.02121" width="42.18651" height="3.2511" transform="translate(-286.74406 160.73103) rotate(-22.51062)" fill="#57c0b3"/><rect x="458.80141" y="491.62473" width="3.2511" height="42.18795" transform="matrix(0.55614, -0.83109, 0.83109, 0.55614, -352.65322, 540.75307)" fill="#57c0b3"/><ellipse cx="395.86633" cy="372.95401" rx="164.17107" ry="80.46008" transform="translate(-145.03503 660.83367) rotate(-84.36901)" fill="#e6e6e6"/><path d="M378.44285,641.00468c-13.08066-195.31557,37.50028-383.6477,38.01258-385.52721l3.13615.85473c-.511,1.87484-50.948,189.70118-37.9054,384.45632Z" transform="translate(-130.9042 -69.48176)" fill="#3f3d56"/><rect x="391.67367" y="361.87935" width="82.51384" height="3.2511" transform="translate(-237.08815 123.96365) rotate(-22.51062)" fill="#3f3d56"/><rect x="352.96843" y="334.12429" width="3.2511" height="82.51384" transform="translate(-285.48788 391.84164) rotate(-56.21159)" fill="#3f3d56"/><ellipse cx="595.20552" cy="293.31849" rx="224.65515" ry="110.10326" transform="translate(113.99601 787.38934) rotate(-84.36901)" fill="#57c0b3"/><path d="M571.9608,660.085c-17.893-267.17522,51.29658-524.79536,51.99745-527.36607l3.13615.85472c-.69962,2.56606-69.74527,259.6804-51.89027,526.29519Z" transform="translate(-130.9042 -69.48176)" fill="#3f3d56"/><rect x="589.46865" y="278.76226" width="112.91339" height="3.2511" transform="translate(-189.03802 199.17687) rotate(-22.51062)" fill="#3f3d56"/><rect x="537.10232" y="240.18265" width="3.2511" height="112.91339" transform="translate(-138.31025 509.93024) rotate(-56.21231)" fill="#3f3d56"/><path d="M260.21846,656.72262l-2,112.50247c0,26.619,23.19,48.19931,49.34,48.19931h233.21c26.15,0,49.35-21.58029,49.35-48.19931l-2-111.515C470.54677,612.13741,361.82945,614.99539,260.21846,656.72262Z" transform="translate(-130.9042 -69.48176)" fill="#57c0b3"/><path d="M454.33082,177.90815l12.41348-9.92842c-9.64348-1.06393-13.60581,4.19542-15.22743,8.35824-7.53389-3.12835-15.73542.97151-15.73542.97151l24.8371,9.01674A18.79483,18.79483,0,0,0,454.33082,177.90815Z" transform="translate(-130.9042 -69.48176)" fill="#3f3d56"/></svg>