<svg width="1856" height="512" viewBox="0 0 1856 512" fill="none" xmlns="http://www.w3.org/2000/svg">
<circle cx="256" cy="256" r="210" fill="white"/>
<path d="M512 256C512 222.382 505.378 189.092 492.513 158.033C479.648 126.974 460.791 98.7525 437.019 74.9807C413.248 51.2089 385.026 32.352 353.967 19.4868C322.908 6.62163 289.618 -1.46951e-06 256 0L256 46.08C283.567 46.08 310.864 51.5097 336.333 62.0592C361.802 72.6087 384.943 88.0713 404.436 107.564C423.929 127.057 439.391 150.198 449.941 175.667C460.49 201.136 465.92 228.433 465.92 256H512Z" fill="#F27A86"/>
<path d="M256 0C188.105 -8.09645e-07 122.99 26.9713 74.9807 74.9807C26.9714 122.99 5.93561e-06 188.105 0 256L46.08 256C46.08 200.326 68.1965 146.932 107.564 107.564C146.932 68.1965 200.326 46.08 256 46.08L256 0Z" fill="#70CBF2"/>
<path d="M0 256C-2.93901e-06 289.618 6.62163 322.908 19.4868 353.967C32.352 385.026 51.2089 413.248 74.9807 437.019C98.7524 460.791 126.974 479.648 158.033 492.513C189.092 505.378 222.382 512 256 512L256 465.92C228.433 465.92 201.136 460.49 175.667 449.941C150.198 439.391 127.057 423.929 107.564 404.436C88.0713 384.943 72.6087 361.802 62.0592 336.333C51.5097 310.864 46.08 283.567 46.08 256L0 256Z" fill="#F6C28B"/>
<path d="M256 512C289.618 512 322.908 505.378 353.967 492.513C385.026 479.648 413.248 460.791 437.019 437.019C460.791 413.248 479.648 385.026 492.513 353.967C505.378 322.908 512 289.618 512 256H465.92C465.92 283.567 460.49 310.864 449.941 336.333C439.391 361.802 423.929 384.943 404.436 404.436C384.943 423.929 361.802 439.391 336.333 449.941C310.864 460.49 283.567 465.92 256 465.92L256 512Z" fill="#57C0B3"/>
<path fill-rule="evenodd" clip-rule="evenodd" d="M330.632 343.632L373.058 301.206C392.857 281.407 392.857 264.436 373.059 244.637L288.206 159.784C268.407 139.985 251.436 139.985 231.637 159.784L146.784 244.637C127.692 263.729 126.985 281.407 146.784 301.206L189.211 343.632L259.921 272.921L330.632 343.632Z" fill="#1E232C"/>
<path d="M777.437 254.807L772.361 273.843H816.459L811.7 254.807C808.951 244.444 806.096 233.446 803.135 221.813C800.385 210.181 797.636 198.971 794.886 188.185H793.617C791.079 199.183 788.435 210.498 785.686 222.131C783.148 233.552 780.398 244.444 777.437 254.807ZM702.566 359.5L767.285 152.653H823.439L888.158 359.5H838.667L825.977 310.326H762.844L750.154 359.5H702.566Z" fill="#1E232C"/>
<path d="M1047.89 363.307C1030.54 363.307 1014.57 359.289 999.981 351.252C985.387 343.215 973.649 331.371 964.766 315.72C956.095 299.857 951.759 280.399 951.759 257.345C951.759 234.503 956.2 215.045 965.083 198.971C974.178 182.686 986.128 170.313 1000.93 161.853C1015.95 153.182 1032.13 148.846 1049.47 148.846C1062.8 148.846 1074.75 151.595 1085.32 157.094C1095.9 162.382 1104.67 168.621 1111.65 175.812L1086.91 205.634C1081.62 200.769 1076.02 196.856 1070.09 193.895C1064.38 190.723 1057.83 189.137 1050.42 189.137C1041.12 189.137 1032.55 191.78 1024.73 197.068C1017.11 202.355 1010.98 209.969 1006.33 219.91C1001.88 229.85 999.664 241.8 999.664 255.759C999.664 276.909 1004.21 293.406 1013.31 305.25C1022.4 317.094 1034.56 323.016 1049.79 323.016C1058.25 323.016 1065.76 321.113 1072.31 317.306C1079.08 313.499 1085 308.952 1090.08 303.664L1114.83 332.851C1097.48 353.155 1075.17 363.307 1047.89 363.307Z" fill="#1E232C"/>
<path d="M1248.71 254.807L1243.64 273.843H1287.74L1282.98 254.807C1280.23 244.444 1277.37 233.446 1274.41 221.813C1271.66 210.181 1268.91 198.971 1266.16 188.185H1264.89C1262.36 199.183 1259.71 210.498 1256.96 222.131C1254.43 233.552 1251.68 244.444 1248.71 254.807ZM1173.84 359.5L1238.56 152.653H1294.72L1359.44 359.5H1309.94L1297.25 310.326H1234.12L1221.43 359.5H1173.84Z" fill="#1E232C"/>
<path d="M1516.94 363.307C1498.33 363.307 1481.94 358.971 1467.77 350.3C1453.81 341.628 1442.81 329.256 1434.77 313.182C1426.95 296.896 1423.04 277.544 1423.04 255.125C1423.04 232.494 1426.95 213.353 1434.77 197.702C1442.81 181.84 1453.81 169.784 1467.77 161.536C1481.94 153.076 1498.33 148.846 1516.94 148.846C1535.55 148.846 1551.84 153.076 1565.8 161.536C1579.97 169.784 1590.97 181.84 1598.79 197.702C1606.83 213.565 1610.85 232.706 1610.85 255.125C1610.85 277.544 1606.83 296.896 1598.79 313.182C1590.97 329.256 1579.97 341.628 1565.8 350.3C1551.84 358.971 1535.55 363.307 1516.94 363.307ZM1516.94 323.016C1531.11 323.016 1542.32 316.883 1550.57 304.616C1558.82 292.349 1562.94 275.852 1562.94 255.125C1562.94 234.398 1558.82 218.218 1550.57 206.585C1542.32 194.953 1531.11 189.137 1516.94 189.137C1502.77 189.137 1491.56 194.953 1483.31 206.585C1475.07 218.218 1470.94 234.398 1470.94 255.125C1470.94 275.852 1475.07 292.349 1483.31 304.616C1491.56 316.883 1502.77 323.016 1516.94 323.016Z" fill="#1E232C"/>
<path d="M1766.81 363.307C1753.27 363.307 1739.73 360.769 1726.2 355.693C1712.87 350.617 1700.92 343.215 1690.35 333.486L1717 301.443C1724.4 307.788 1732.65 312.97 1741.74 316.989C1750.84 321.007 1759.62 323.016 1768.08 323.016C1777.8 323.016 1785 321.219 1789.65 317.623C1794.51 314.028 1796.95 309.163 1796.95 303.03C1796.95 296.473 1794.2 291.714 1788.7 288.753C1783.41 285.581 1776.22 282.091 1767.12 278.284L1740.16 266.863C1733.18 263.902 1726.52 259.989 1720.17 255.125C1713.83 250.049 1708.64 243.809 1704.63 236.407C1700.61 229.004 1698.6 220.333 1698.6 210.392C1698.6 198.971 1701.66 188.608 1707.8 179.302C1714.14 169.996 1722.81 162.593 1733.81 157.094C1745.02 151.595 1757.82 148.846 1772.2 148.846C1784.04 148.846 1795.89 151.172 1807.73 155.825C1819.58 160.478 1829.94 167.246 1838.82 176.129L1815.03 205.634C1808.26 200.346 1801.49 196.328 1794.72 193.578C1787.96 190.617 1780.45 189.137 1772.2 189.137C1764.16 189.137 1757.71 190.829 1752.85 194.213C1748.19 197.385 1745.87 201.932 1745.87 207.854C1745.87 214.199 1748.83 218.958 1754.75 222.131C1760.88 225.303 1768.39 228.687 1777.28 232.283L1803.92 243.069C1816.4 248.145 1826.34 255.125 1833.75 264.008C1841.15 272.891 1844.85 284.629 1844.85 299.223C1844.85 310.644 1841.78 321.219 1835.65 330.948C1829.52 340.677 1820.63 348.502 1809 354.424C1797.37 360.346 1783.3 363.307 1766.81 363.307Z" fill="#1E232C"/>
</svg>
