<svg width="834" height="832" viewBox="0 0 834 832" fill="none" xmlns="http://www.w3.org/2000/svg">
<ellipse cx="418" cy="256" rx="210" ry="210" fill="#1E232C"/>
<path d="M674 256C674 222.382 667.378 189.092 654.513 158.033C641.648 126.974 622.791 98.7526 599.019 74.9808C575.247 51.209 547.026 32.3522 515.967 19.487C484.907 6.62175 451.618 0.000120601 418 0.00012207L418 46.0801C445.567 46.0801 472.864 51.5099 498.333 62.0593C523.801 72.6088 546.943 88.0714 566.436 107.564C585.929 127.057 601.391 150.199 611.941 175.667C622.49 201.136 627.92 228.433 627.92 256H674Z" fill="#F27A86"/>
<path d="M418 0.00012207C350.105 0.000121261 284.99 26.9715 236.981 74.9808C188.971 122.99 162 188.105 162 256L208.08 256C208.08 200.326 230.196 146.932 269.564 107.564C308.932 68.1966 362.326 46.0801 418 46.0801L418 0.00012207Z" fill="#70CBF2"/>
<path d="M162 256C162 289.618 168.622 322.908 181.487 353.967C194.352 385.026 213.209 413.248 236.981 437.019C260.752 460.791 288.974 479.648 320.033 492.513C351.092 505.378 384.382 512 418 512L418 465.92C390.433 465.92 363.136 460.49 337.667 449.941C312.198 439.391 289.057 423.929 269.564 404.436C250.071 384.943 234.609 361.802 224.059 336.333C213.51 310.864 208.08 283.567 208.08 256L162 256Z" fill="#F6C28B"/>
<path d="M418 512C451.618 512 484.907 505.378 515.967 492.513C547.026 479.648 575.247 460.791 599.019 437.019C622.791 413.248 641.648 385.026 654.513 353.967C667.378 322.908 674 289.618 674 256H627.92C627.92 283.567 622.49 310.864 611.941 336.333C601.391 361.802 585.929 384.943 566.436 404.436C546.943 423.929 523.801 439.391 498.333 449.941C472.864 460.49 445.567 465.92 418 465.92L418 512Z" fill="#57C0B3"/>
<path fill-rule="evenodd" clip-rule="evenodd" d="M492.632 343.632L535.058 301.206C554.857 281.407 554.857 264.436 535.058 244.637L450.206 159.784C430.407 139.985 413.436 139.985 393.637 159.784L308.784 244.637C289.692 263.729 288.985 281.407 308.784 301.206L351.211 343.632L421.921 272.921L492.632 343.632Z" fill="white"/>
<path d="M55.0383 753.139L51.3723 766.886H83.2207L79.7838 753.139C77.7981 745.654 75.7359 737.711 73.5974 729.31C71.6117 720.908 69.6259 712.813 67.6402 705.022H66.7237C64.8907 712.965 62.9813 721.138 60.9955 729.539C59.1625 737.787 57.1768 745.654 55.0383 753.139ZM0.964752 828.75L47.7063 679.36H88.2614L135.003 828.75H99.2594L90.0944 793.236H44.4985L35.3335 828.75H0.964752Z" fill="white"/>
<path d="M250.362 831.499C237.837 831.499 226.304 828.597 215.764 822.793C205.224 816.988 196.747 808.434 190.331 797.131C184.069 785.674 180.937 771.621 180.937 754.972C180.937 738.475 184.145 724.422 190.56 712.813C197.129 701.051 205.759 692.115 216.452 686.005C227.297 679.742 238.982 676.611 251.508 676.611C261.131 676.611 269.761 678.597 277.399 682.568C285.036 686.387 291.375 690.893 296.416 696.087L278.545 717.624C274.726 714.111 270.678 711.285 266.401 709.147C262.277 706.855 257.541 705.71 252.195 705.71C245.474 705.71 239.288 707.619 233.636 711.438C228.137 715.257 223.707 720.756 220.347 727.935C217.139 735.114 215.535 743.745 215.535 753.826C215.535 769.101 218.819 781.016 225.387 789.57C231.956 798.124 240.739 802.401 251.737 802.401C257.847 802.401 263.269 801.026 268.005 798.276C272.893 795.527 277.17 792.243 280.836 788.424L298.707 809.503C286.182 824.167 270.067 831.499 250.362 831.499Z" fill="white"/>
<path d="M395.405 753.139L391.739 766.886H423.588L420.151 753.139C418.165 745.654 416.103 737.711 413.965 729.31C411.979 720.908 409.993 712.813 408.007 705.022H407.091C405.258 712.965 403.348 721.138 401.363 729.539C399.53 737.787 397.544 745.654 395.405 753.139ZM341.332 828.75L388.073 679.36H428.629L475.37 828.75H439.627L430.462 793.236H384.866L375.701 828.75H341.332Z" fill="white"/>
<path d="M589.125 831.499C575.683 831.499 563.845 828.368 553.611 822.105C543.53 815.843 535.587 806.907 529.782 795.298C524.13 783.536 521.304 769.559 521.304 753.368C521.304 737.024 524.13 723.2 529.782 711.896C535.587 700.44 543.53 691.733 553.611 685.776C563.845 679.666 575.683 676.611 589.125 676.611C602.567 676.611 614.329 679.666 624.411 685.776C634.645 691.733 642.588 700.44 648.24 711.896C654.044 723.352 656.946 737.176 656.946 753.368C656.946 769.559 654.044 783.536 648.24 795.298C642.588 806.907 634.645 815.843 624.411 822.105C614.329 828.368 602.567 831.499 589.125 831.499ZM589.125 802.401C599.36 802.401 607.455 797.971 613.413 789.111C619.37 780.252 622.349 768.337 622.349 753.368C622.349 738.398 619.37 726.713 613.413 718.312C607.455 709.91 599.36 705.71 589.125 705.71C578.891 705.71 570.795 709.91 564.838 718.312C558.881 726.713 555.902 738.398 555.902 753.368C555.902 768.337 558.881 780.252 564.838 789.111C570.795 797.971 578.891 802.401 589.125 802.401Z" fill="white"/>
<path d="M769.583 831.499C759.807 831.499 750.031 829.666 740.255 826C730.632 822.334 722.001 816.988 714.364 809.962L733.61 786.82C738.957 791.403 744.914 795.145 751.482 798.047C758.05 800.949 764.389 802.401 770.499 802.401C777.526 802.401 782.719 801.102 786.08 798.505C789.593 795.909 791.35 792.395 791.35 787.966C791.35 783.23 789.364 779.794 785.393 777.655C781.574 775.364 776.38 772.843 769.812 770.094L750.336 761.845C745.296 759.707 740.484 756.881 735.902 753.368C731.319 749.702 727.577 745.196 724.674 739.849C721.772 734.503 720.321 728.24 720.321 721.061C720.321 712.813 722.536 705.328 726.966 698.607C731.548 691.886 737.811 686.54 745.754 682.568C753.85 678.597 763.091 676.611 773.478 676.611C782.032 676.611 790.586 678.291 799.14 681.652C807.694 685.012 815.179 689.9 821.594 696.316L804.41 717.624C799.522 713.806 794.634 710.903 789.746 708.918C784.858 706.779 779.435 705.71 773.478 705.71C767.674 705.71 763.015 706.932 759.501 709.376C756.141 711.667 754.461 714.951 754.461 719.228C754.461 723.811 756.599 727.248 760.876 729.539C765.306 731.83 770.729 734.274 777.144 736.871L796.391 744.661C805.403 748.327 812.582 753.368 817.928 759.783C823.275 766.199 825.948 774.676 825.948 785.216C825.948 793.465 823.733 801.102 819.303 808.129C814.873 815.155 808.458 820.807 800.057 825.084C791.655 829.361 781.497 831.499 769.583 831.499Z" fill="white"/>
</svg>
