<svg width="834" height="832" viewBox="0 0 834 832" fill="none" xmlns="http://www.w3.org/2000/svg">
<ellipse cx="418" cy="256" rx="210" ry="210" fill="white"/>
<path d="M674 256C674 222.382 667.379 189.092 654.513 158.033C641.648 126.974 622.791 98.7525 599.02 74.9807C575.248 51.2089 547.027 32.352 515.967 19.4868C484.908 6.62163 451.619 -1.46951e-06 418 0L418 46.08C445.567 46.08 472.864 51.5097 498.333 62.0592C523.802 72.6087 546.943 88.0713 566.436 107.564C585.929 127.057 601.392 150.198 611.941 175.667C622.491 201.136 627.92 228.433 627.92 256H674Z" fill="#F27A86"/>
<path d="M418 0C350.105 -8.09645e-07 284.99 26.9714 236.981 74.9807C188.971 122.99 162 188.105 162 256L208.08 256C208.08 200.326 230.197 146.932 269.564 107.564C308.932 68.1965 362.326 46.08 418 46.08L418 0Z" fill="#70CBF2"/>
<path d="M162 256C162 289.618 168.622 322.908 181.487 353.967C194.352 385.026 213.209 413.248 236.981 437.019C260.753 460.791 288.974 479.648 320.033 492.513C351.092 505.378 384.382 512 418 512L418 465.92C390.433 465.92 363.136 460.49 337.667 449.941C312.199 439.391 289.057 423.929 269.564 404.436C250.071 384.943 234.609 361.802 224.059 336.333C213.51 310.864 208.08 283.567 208.08 256L162 256Z" fill="#F6C28B"/>
<path d="M418 512C451.619 512 484.908 505.378 515.967 492.513C547.027 479.648 575.248 460.791 599.02 437.019C622.791 413.248 641.648 385.026 654.513 353.967C667.379 322.908 674 289.618 674 256H627.92C627.92 283.567 622.491 310.864 611.941 336.333C601.392 361.802 585.929 384.943 566.436 404.436C546.943 423.929 523.802 439.391 498.333 449.941C472.864 460.49 445.567 465.92 418 465.92L418 512Z" fill="#57C0B3"/>
<path fill-rule="evenodd" clip-rule="evenodd" d="M492.632 343.632L535.058 301.206C554.857 281.407 554.857 264.436 535.059 244.637L450.206 159.784C430.407 139.985 413.436 139.985 393.637 159.784L308.784 244.637C289.692 263.729 288.985 281.407 308.784 301.206L351.211 343.632L421.921 272.921L492.632 343.632Z" fill="#1E232C"/>
<path d="M55.0383 753.139L51.3723 766.886H83.2206L79.7838 753.139C77.798 745.654 75.7359 737.711 73.5974 729.31C71.6116 720.909 69.6259 712.813 67.6401 705.023H66.7236C64.8906 712.966 62.9813 721.138 60.9955 729.539C59.1625 737.787 57.1768 745.654 55.0383 753.139ZM0.964752 828.75L47.7063 679.361H88.2614L135.003 828.75H99.2594L90.0944 793.236H44.4985L35.3335 828.75H0.964752Z" fill="#1E232C"/>
<path d="M250.362 831.499C237.836 831.499 226.304 828.597 215.764 822.793C205.224 816.988 196.747 808.434 190.331 797.131C184.068 785.674 180.937 771.622 180.937 754.972C180.937 738.475 184.145 724.422 190.56 712.813C197.129 701.051 205.759 692.115 216.451 686.005C227.297 679.742 238.982 676.611 251.508 676.611C261.131 676.611 269.761 678.597 277.399 682.568C285.036 686.387 291.375 690.893 296.416 696.087L278.544 717.624C274.726 714.111 270.678 711.285 266.401 709.147C262.276 706.856 257.541 705.71 252.195 705.71C245.474 705.71 239.288 707.619 233.636 711.438C228.137 715.257 223.707 720.756 220.347 727.935C217.139 735.114 215.535 743.745 215.535 753.826C215.535 769.101 218.819 781.016 225.387 789.57C231.956 798.124 240.739 802.401 251.737 802.401C257.847 802.401 263.269 801.026 268.005 798.276C272.893 795.527 277.17 792.243 280.836 788.424L298.707 809.503C286.182 824.167 270.067 831.499 250.362 831.499Z" fill="#1E232C"/>
<path d="M395.405 753.139L391.739 766.886H423.588L420.151 753.139C418.165 745.654 416.103 737.711 413.964 729.31C411.979 720.909 409.993 712.813 408.007 705.023H407.091C405.258 712.966 403.348 721.138 401.362 729.539C399.529 737.787 397.544 745.654 395.405 753.139ZM341.332 828.75L388.073 679.361H428.628L475.37 828.75H439.626L430.461 793.236H384.865L375.7 828.75H341.332Z" fill="#1E232C"/>
<path d="M589.125 831.499C575.683 831.499 563.845 828.368 553.611 822.105C543.529 815.843 535.586 806.907 529.782 795.298C524.13 783.536 521.304 769.559 521.304 753.368C521.304 737.024 524.13 723.2 529.782 711.896C535.586 700.44 543.529 691.733 553.611 685.776C563.845 679.666 575.683 676.611 589.125 676.611C602.567 676.611 614.329 679.666 624.41 685.776C634.645 691.733 642.588 700.44 648.239 711.896C654.044 723.353 656.946 737.176 656.946 753.368C656.946 769.559 654.044 783.536 648.239 795.298C642.588 806.907 634.645 815.843 624.41 822.105C614.329 828.368 602.567 831.499 589.125 831.499ZM589.125 802.401C599.359 802.401 607.455 797.971 613.412 789.111C619.37 780.252 622.348 768.337 622.348 753.368C622.348 738.398 619.37 726.713 613.412 718.312C607.455 709.911 599.359 705.71 589.125 705.71C578.891 705.71 570.795 709.911 564.838 718.312C558.881 726.713 555.902 738.398 555.902 753.368C555.902 768.337 558.881 780.252 564.838 789.111C570.795 797.971 578.891 802.401 589.125 802.401Z" fill="#1E232C"/>
<path d="M769.582 831.499C759.806 831.499 750.03 829.666 740.254 826C730.631 822.334 722.001 816.988 714.363 809.962L733.61 786.82C738.956 791.403 744.913 795.145 751.482 798.047C758.05 800.949 764.389 802.401 770.499 802.401C777.525 802.401 782.719 801.102 786.079 798.505C789.593 795.909 791.349 792.395 791.349 787.966C791.349 783.23 789.364 779.794 785.392 777.655C781.573 775.364 776.38 772.844 769.812 770.094L750.336 761.846C745.295 759.707 740.484 756.881 735.901 753.368C731.319 749.702 727.576 745.196 724.674 739.85C721.772 734.503 720.321 728.241 720.321 721.061C720.321 712.813 722.535 705.328 726.965 698.607C731.548 691.886 737.81 686.54 745.753 682.568C753.849 678.597 763.091 676.611 773.478 676.611C782.032 676.611 790.586 678.291 799.14 681.652C807.694 685.012 815.178 689.9 821.594 696.316L804.409 717.624C799.521 713.806 794.633 710.903 789.745 708.918C784.857 706.779 779.435 705.71 773.478 705.71C767.673 705.71 763.014 706.932 759.501 709.376C756.14 711.667 754.46 714.951 754.46 719.228C754.46 723.811 756.599 727.248 760.876 729.539C765.305 731.83 770.728 734.274 777.144 736.871L796.39 744.661C805.402 748.327 812.582 753.368 817.928 759.783C823.274 766.199 825.947 774.677 825.947 785.216C825.947 793.465 823.732 801.102 819.303 808.129C814.873 815.155 808.457 820.807 800.056 825.084C791.655 829.361 781.497 831.499 769.582 831.499Z" fill="#1E232C"/>
</svg>
