<svg width="512" height="512" viewBox="0 0 512 512" fill="none" xmlns="http://www.w3.org/2000/svg">
<path fill-rule="evenodd" clip-rule="evenodd" d="M80 36C64 36 52 48 52 64V276C52 388 144 476 256 476C368 476 460 388 460 276V64C460 48 448 36 432 36H80Z" fill="white"/>
<path d="M16 64C16 28 44 0 80 0H260V36H80C64 36 52 48 52 64V240H16V64Z" fill="#70CBF2"/>
<path d="M432 0C468 0 496 28 496 64V240H460V64C460 48 448 36 432 36H260V0H432Z" fill="#F27A86"/>
<path d="M256 512C124 512 16 408 16 276V240H52V276C52 388 144 476 256 476V512Z" fill="#F6C28B"/>
<path d="M496 276C496 408 388 512 256 512V476C368 476 460 388 460 276V240L496 240V276Z" fill="#57C0B3"/>
<path fill-rule="evenodd" clip-rule="evenodd" d="M260 140H200C172 140 160 152 160 180V300C160 328 172 340 200 340H320C347 340 360 328 360 300V240H260V140Z" fill="#1E232C"/>
</svg>
